<svg width="48" height="49" viewBox="0 0 48 49" fill="none" xmlns="http://www.w3.org/2000/svg">
<g clip-path="url(#clip0_3628_3332)">
<path d="M24 48.7643C37.2548 48.7643 48 38.0088 48 24.7413C48 11.4737 37.2548 0.718262 24 0.718262C10.7452 0.718262 0 11.4737 0 24.7413C0 38.0088 10.7452 48.7643 24 48.7643Z" fill="#4D76A1"/>
<path fill-rule="evenodd" clip-rule="evenodd" d="M23.0933 35.2775H24.977C24.977 35.2775 25.546 35.215 25.8365 34.9015C26.1039 34.6137 26.0953 34.0733 26.0953 34.0733C26.0953 34.0733 26.0585 31.5433 27.2316 31.1707C28.388 30.8037 29.873 33.6159 31.447 34.6972C32.6372 35.5156 33.5416 35.3362 33.5416 35.3362L37.7501 35.2775C37.7501 35.2775 39.9517 35.1417 38.9078 33.4091C38.8222 33.2674 38.2998 32.1274 35.7787 29.785C33.1399 27.3333 33.4933 27.7299 36.672 23.4891C38.6079 20.9064 39.3818 19.3297 39.1401 18.6543C38.9095 18.0111 37.4857 18.1811 37.4857 18.1811L32.7471 18.2107C32.7471 18.2107 32.3959 18.1627 32.1353 18.3186C31.8808 18.4715 31.7169 18.8278 31.7169 18.8278C31.7169 18.8278 30.967 20.8263 29.9667 22.526C27.8567 26.1124 27.013 26.3017 26.6682 26.079C25.866 25.56 26.0662 23.994 26.0662 22.8814C26.0662 19.4059 26.5929 17.9568 25.0408 17.5816C24.5257 17.457 24.1466 17.3748 22.8293 17.3615C21.1386 17.344 19.7075 17.3667 18.8972 17.7641C18.3582 18.0283 17.9423 18.6171 18.1956 18.6509C18.5088 18.6929 19.2181 18.8423 19.5941 19.3549C20.0797 20.0161 20.0626 21.5012 20.0626 21.5012C20.0626 21.5012 20.3416 25.5926 19.411 26.1009C18.7723 26.4495 17.8961 25.7377 16.015 22.484C15.0511 20.8173 14.3234 18.9751 14.3234 18.9751C14.3234 18.9751 14.183 18.6308 13.9328 18.4467C13.629 18.2235 13.2046 18.1525 13.2046 18.1525L8.70178 18.182C8.70178 18.182 8.02582 18.2008 7.77768 18.495C7.55693 18.7567 7.76014 19.298 7.76014 19.298C7.76014 19.298 11.2854 27.5535 15.277 31.7137C18.937 35.528 23.0933 35.2775 23.0933 35.2775Z" fill="white"/>
</g>
<defs>
<clipPath id="clip0_3628_3332">
<rect width="48" height="48.046" fill="white" transform="translate(0 0.718262)"/>
</clipPath>
</defs>
</svg>
