<svg width="48" height="49" viewBox="0 0 48 49" fill="none" xmlns="http://www.w3.org/2000/svg">
<g clip-path="url(#clip0_3628_3326)">
<path d="M23.9871 0.730969C10.7401 0.733782 0.00357906 11.4852 0.00638989 24.7449C0.00732684 29.3363 1.32364 33.8311 3.79905 37.6965L0.0672913 47.3881C-0.131435 47.9036 0.124914 48.4827 0.639859 48.6816C0.755009 48.7261 0.877281 48.7488 1.00068 48.7487C1.11517 48.7492 1.22882 48.7296 1.33648 48.6906L11.3306 45.1193C22.5751 52.1292 37.3677 48.6876 44.3709 37.4323C51.374 26.1769 47.9357 11.3701 36.6912 4.36033C32.8795 1.98402 28.4778 0.726561 23.9871 0.730969Z" fill="#55CD6C"/>
<path d="M35.4225 28.8432C35.4225 28.8432 32.974 27.6428 31.4409 26.8425C29.7059 25.9482 27.6671 27.6228 26.7077 28.5752C25.2145 28.001 23.8507 27.1344 22.6961 26.0262C21.5887 24.8707 20.723 23.5055 20.1495 22.0107C21.101 21.0484 22.77 19.0096 21.8806 17.273C21.091 15.7365 19.8818 13.2876 19.8818 13.2856C19.7121 12.9485 19.3674 12.7357 18.9903 12.7354H16.9915C14.0806 13.2386 11.9641 15.7809 11.9945 18.7376C11.9945 21.8787 15.7502 27.9129 18.2828 30.4498C20.8153 32.9867 26.8437 36.7441 29.9838 36.7441C32.9376 36.7745 35.4775 34.6559 35.9803 31.7423V29.7416C35.9806 29.3601 35.7643 29.0117 35.4225 28.8432Z" fill="#FAFAFA"/>
</g>
<defs>
<clipPath id="clip0_3628_3326">
<rect width="48" height="48.046" fill="white" transform="translate(0 0.718262)"/>
</clipPath>
</defs>
</svg>
